# xmcd CD database file
#
# Track frame offsets:
#	183
#	16233
#	27633
#	41358
#	57783
#	80883
#	92858
#	108933
#	122508
#	139158
#	155658
#	172008
#
# Disc length: 2491 seconds
#
# Revision: 6
# Processed by: cddbd v1.5.2PL0 Copyright (c) Steve Scherf et al.
# Submitted via: CDex 1.70beta2
#
DISCID=9d09b90c
DTITLE=Flippers - Die grossen Erfolge
DYEAR=1975
DGENRE=Schlager
TTITLE0=Scha la la,I love You  1970
TTITLE1=Heut ruft mein Herz nach Dir  1970
TTITLE2=Mona Lisa  1972
TTITLE3=Meine grosse Liebe  1972
TTITLE4=Manuela  1972
TTITLE5=Spiel nicht mit dem Feuer  1975
TTITLE6=Luana  1975
TTITLE7=Hanni Angela  1975
TTITLE8=Ich hab' die Liebe gefunden  1975
TTITLE9=California  1975
TTITLE10=Bleib mir treu  1974
TTITLE11=Ich muss sie wieder sehen  1975
EXTD=YEAR: 1975
EXTT0=
EXTT1=
EXTT2=
EXTT3=
EXTT4=
EXTT5=
EXTT6=
EXTT7=
EXTT8=
EXTT9=
EXTT10=
EXTT11=
PLAYORDER=
